<svg preserveAspectRatio="none" width="100%" height="100%" overflow="visible" style="display: block;" viewBox="0 0 41 41" fill="none" xmlns="http://www.w3.org/2000/svg">
<g id="zuoxishijian 1">
<path id="Vector" d="M31.6888 19.1228H35.5737V21.2988H31.6888V19.1228ZM20.8089 29.4771H22.9849V33.3619H20.8089V29.4771ZM31.9645 11.6808L29.2175 14.4277L27.6789 12.8891L30.4258 10.1422L31.9645 11.6808ZM30.426 30.2798L27.6791 27.5328L29.2177 25.9942L31.9646 28.7412L30.426 30.2798ZM15.6906 26.0864L20.8504 20.9245V10.4918H24.1498V22.2297C23.9204 22.4591 18.0254 28.4205 18.0254 28.4205L15.6906 26.0864Z" fill="var(--fill-0, #E0620D)"/>
<path id="Vector_2" d="M22.7959 2.14933V5.2796C30.8855 5.2796 37.4676 11.8617 37.4676 19.9525C37.4676 28.0428 30.8855 34.6249 22.7959 34.6249C15.3723 34.6249 9.22223 29.0798 8.25988 21.9148L10.4928 24.1173L12.7066 21.9035L6.59032 15.7872L0.458071 21.904L2.67184 24.1178L5.08325 21.7064C5.96729 30.702 13.5735 37.7557 22.7968 37.7557C32.6122 37.7557 40.5991 29.7692 40.5991 19.9529C40.5982 10.1362 32.6121 2.14933 22.7959 2.14933Z" fill="var(--fill-0, #E0620D)"/>
</g>
</svg>
