<svg preserveAspectRatio="none" width="100%" height="100%" overflow="visible" style="display: block;" viewBox="0 0 38 38" fill="none" xmlns="http://www.w3.org/2000/svg">
<g id="wendu 1">
<path id="Vector" d="M20.154 23.3915V13.1985C20.154 12.5788 19.6494 12.0742 19.0297 12.0742H18.9406C18.3358 12.0742 17.8497 12.564 17.8497 13.1651V23.3915C16.1725 23.8776 14.9443 25.3766 14.9443 27.1651C14.9443 29.3506 16.7588 31.1206 19.0037 31.1206C21.2449 31.1206 23.0594 29.3469 23.0594 27.1651C23.0557 25.3766 21.8275 23.8813 20.154 23.3915ZM26.1243 18.8757C25.872 18.6679 25.7236 18.3859 25.7236 18.0965V6.57143C25.7236 2.9462 22.7069 0 19 0C15.2931 0 12.2764 2.9462 12.2764 6.57143V17.7699C12.2764 18.256 12.0761 18.705 11.731 18.9981C9.30056 21.0501 7.90909 24.0297 7.90909 27.1688C7.90909 33.1391 12.885 38 19.0037 38C25.1224 38 30.0983 33.1429 30.0983 27.1688C30.0946 23.9555 28.6475 20.9314 26.1243 18.8757ZM19 34.5603C14.807 34.5603 11.4007 31.243 11.4007 27.1651C11.4007 24.6234 12.7291 22.2857 14.9518 20.9165L15.4898 20.5863C15.6642 20.4787 15.7718 20.2857 15.7718 20.0816V6.57143C15.7718 4.8423 17.2226 3.43599 19.0037 3.43599C20.7848 3.43599 22.2356 4.8423 22.2356 6.57143V20.0816C22.2356 20.2857 22.3432 20.4787 22.5176 20.5863L23.0557 20.9165C25.2783 22.2857 26.603 24.6197 26.603 27.1651C26.5993 31.243 23.1892 34.5603 19 34.5603Z" fill="var(--fill-0, #E0620D)"/>
</g>
</svg>
