<svg preserveAspectRatio="none" width="100%" height="100%" overflow="visible" style="display: block;" viewBox="0 0 39 39" fill="none" xmlns="http://www.w3.org/2000/svg">
<g id="naiping 1">
<path id="Vector" d="M32.4076 24.9561V21.0296C32.4076 19.7707 31.3872 18.7502 30.1283 18.7502V32.4267C30.1283 34.9444 28.0872 36.9857 25.5696 36.9857H14.1724C11.6548 36.9857 9.6137 34.9444 9.6137 32.4267V18.7502C8.35478 18.7502 7.33434 19.7707 7.33434 21.0296V24.9561C5.97734 24.1664 5.05499 22.7126 5.05499 21.0296C5.05499 18.5117 7.09605 16.4707 9.6137 16.4707C9.6137 14.7876 10.5362 13.3339 11.8931 12.5442V11.9118C11.8931 10.062 12.9993 8.47763 14.5825 7.76276C14.9848 6.87161 15.6686 6.14601 16.5167 5.6706C16.7439 4.7777 17.5997 4.89236 18.7313 5.00351V3.93374C18.7313 3.63142 18.8514 3.34149 19.0652 3.12772C19.2789 2.91396 19.5689 2.79386 19.8712 2.79386C20.1735 2.79386 20.4634 2.91396 20.6772 3.12772C20.891 3.34149 21.0111 3.63142 21.0111 3.93374V5.00351C22.1426 4.89236 22.9983 4.7777 23.2255 5.6706C24.0735 6.14601 24.7574 6.87161 25.1599 7.76276C26.7425 8.47763 27.8489 10.062 27.8489 11.9118V12.5442C29.2059 13.3339 30.1283 14.7876 30.1283 16.4707C32.6461 16.4707 34.6872 18.5117 34.6872 21.0296C34.6872 22.713 33.7646 24.1665 32.4076 24.9561ZM21.0109 7.35326H18.7313C17.4724 7.35326 16.4522 8.37369 16.4522 9.63261H23.29C23.29 8.37369 22.2696 7.35326 21.0109 7.35326ZM24.4298 11.912H15.3122C15.0099 11.912 14.72 12.032 14.5062 12.2458C14.2925 12.4595 14.1724 12.7495 14.1724 13.0517C14.1724 13.354 14.2925 13.6439 14.5062 13.8577C14.72 14.0714 15.0099 14.1915 15.3122 14.1915H24.43C24.7323 14.1915 25.0222 14.0714 25.2359 13.8576C25.4496 13.6438 25.5697 13.3539 25.5697 13.0516C25.5696 12.7494 25.4495 12.4595 25.2358 12.2457C25.022 12.032 24.7321 11.9119 24.4298 11.912ZM27.8487 18.7502C27.8487 17.4913 26.8285 16.4709 25.5696 16.4709H14.1724C12.9137 16.4709 11.8931 17.4913 11.8931 18.7502V32.4267C11.8931 33.6857 12.9137 34.7061 14.1724 34.7061H25.5696C26.8285 34.7061 27.8487 33.6857 27.8487 32.4267V18.7502ZM24.4298 32.4267C24.1275 32.4268 23.8376 32.3067 23.6238 32.093C23.4101 31.8792 23.29 31.5894 23.2899 31.2871C23.2899 30.9848 23.41 30.6949 23.6237 30.4811C23.8374 30.2673 24.1273 30.1472 24.4296 30.1472C24.7319 30.1472 25.0218 30.2672 25.2356 30.481C25.4493 30.6947 25.5694 30.9846 25.5695 31.2869C25.5695 31.5892 25.4494 31.8791 25.2357 32.0928C25.022 32.3066 24.7321 32.4267 24.4298 32.4267ZM24.4298 27.8678C24.2801 27.8679 24.1319 27.8384 23.9936 27.7811C23.8553 27.7239 23.7296 27.6399 23.6237 27.5341C23.5179 27.4282 23.4339 27.3026 23.3766 27.1643C23.3193 27.026 23.2898 26.8778 23.2898 26.7281V19.89C23.2898 19.5877 23.4099 19.2978 23.6237 19.084C23.8375 18.8702 24.1274 18.7501 24.4297 18.7501C24.732 18.7501 25.0219 18.8702 25.2357 19.084C25.4495 19.2978 25.5696 19.5877 25.5696 19.89V26.7283C25.5696 26.8779 25.5401 27.0261 25.4828 27.1644C25.4255 27.3027 25.3416 27.4283 25.2357 27.5341C25.1299 27.64 25.0042 27.7239 24.866 27.7812C24.7277 27.8384 24.5795 27.8679 24.4298 27.8678Z" fill="var(--fill-0, #E0620D)"/>
</g>
</svg>
